/* XPM */
static char *cfbeb3d686804f21bda12888ad369f85bBjldFtR0XpbGE3V[] = {
/* columns rows colors chars-per-pixel */
"30 30 12 1 ",
"  c None",
". c #170625",
"X c #1C1030",
"o c #811910",
"O c #AE3218",
"+ c #BF461E",
"@ c #D76E1B",
"# c #D77128",
"$ c #A67059",
"% c #E7A235",
"& c #CF9474",
"* c #E9AF89",
/* pixels */
"                              ",
"                              ",
"                              ",
"                              ",
"                              ",
"                              ",
"                              ",
"                              ",
"          ....  ....          ",
"         .O++O.oOO+O.         ",
"        .+##*#+OoOO$O.        ",
"        .#+..O+$Oo.O+.        ",
"       .$#+. oo++. .@O.       ",
"       .+%. .++O+. .%$.       ",
"       .#%. .@%+o  .%#.       ",
"       .+@. oO+%+. .%+.       ",
"       .+*+.+@O+@+.+@+.       ",
"       .O+o+@+.o*@+o+O.       ",
"        .+O$+.  .++O&.        ",
"        .oOOo+..+oOOo.        ",
"         .$+@@%%@*Oo.         ",
"          ..O+@@++..          ",
"           X......X           ",
"                              ",
"                              ",
"                              ",
"                              ",
"                              ",
"                              ",
"                              "
};
