/* XPM */
static char *a6d1be0cb2ef473ad8605f84c0bd7d16Q8huGbR4QbB1T3aD[] = {
/* columns rows colors chars-per-pixel */
"30 30 32 1 ",
"  c None",
". c #170625",
"X c #1C1030",
"o c #341B2E",
"O c #7B433B",
"+ c #5A2F40",
"@ c #5C3446",
"# c #D2390E",
"$ c #D64B0E",
"% c #D64D0E",
"& c #E9600E",
"* c #F46C0E",
"= c #9F5A5C",
"- c #B86A4A",
"; c #B87364",
": c #FF890E",
"> c #FFA30E",
", c #E28251",
"< c #FFBC56",
"1 c #D28D6D",
"2 c #C3967A",
"3 c #F2A66F",
"4 c #F3A76F",
"5 c #F3A770",
"6 c #FFC14A",
"7 c #FFC47B",
"8 c #FFC87B",
"9 c #E6B495",
"0 c #E6B698",
"q c #FFE095",
"w c #F7E3D2",
"e c #FFFEE8",
/* pixels */
"                              ",
"                              ",
"                              ",
"                              ",
"                              ",
"                              ",
"                              ",
"              +@====          ",
"            .o29wwee+         ",
"           .,7qO7eeww+        ",
"          ..,57,-ee-wo        ",
"         .7=,533,7e8o         ",
"        .q1=$&*&&#w$.         ",
"        .7=.#$#**&9#.         ",
"        .1..$&$>:&<$.         ",
"        .1=.$*%6:#e$.         ",
"        .=;.$:**>*#:.         ",
"         .;=#$#&*%*#.         ",
"         .=;$&%>:&:$.         ",
"          .=$*%6:*>$.         ",
"           .$:**>**$.         ",
"           .=,57wew0.         ",
"           X........          ",
"                              ",
"                              ",
"                              ",
"                              ",
"                              ",
"                              ",
"                              "
};
