/* XPM */
static char *_cbd578052db4cdaba126458d175a2a35uKlimKjM03RIONA[] = {
/* columns rows colors chars-per-pixel */
"30 30 256 1 ",
"   c #090C08",
".  c #0B1405",
"X  c #0B1A06",
"o  c #0C1B05",
"O  c #0E130B",
"+  c #131A06",
"@  c #121D06",
"#  c #12140D",
"$  c #10140F",
"%  c #141C0B",
"&  c #1A1D0D",
"*  c #131412",
"=  c #1A1613",
"-  c #151A12",
";  c #1B1C13",
":  c #1C1C1A",
">  c #201A0F",
",  c #231D17",
"<  c #0C2304",
"1  c #0C2806",
"2  c #142405",
"3  c #1A2506",
"4  c #132B05",
"5  c #1B2C05",
"6  c #15230B",
"7  c #1B240C",
"8  c #152B0A",
"9  c #1C2B0B",
"0  c #0D3603",
"q  c #143304",
"w  c #1B3305",
"e  c #143C04",
"r  c #1C3B04",
"t  c #14330A",
"y  c #1C330A",
"u  c #163B09",
"i  c #1C3B0B",
"p  c #1D2312",
"a  c #1C2B12",
"s  c #1A2518",
"d  c #1C3312",
"f  c #1C3914",
"g  c #252B0A",
"h  c #222C0D",
"j  c #233405",
"k  c #2B3505",
"l  c #233C05",
"z  c #2B3C05",
"x  c #23330C",
"c  c #2B350C",
"v  c #243B0B",
"b  c #2B3C0C",
"n  c #35390B",
"m  c #323C0C",
"M  c #232514",
"N  c #292515",
"B  c #242B13",
"V  c #2A2C15",
"C  c #24231B",
"Z  c #2B251B",
"A  c #252B1A",
"S  c #2C2B1B",
"D  c #322E15",
"F  c #322D1C",
"G  c #253312",
"H  c #2B3413",
"J  c #243B12",
"K  c #2C3B13",
"L  c #25361B",
"P  c #2D331A",
"I  c #2D3B1A",
"U  c #323515",
"Y  c #393614",
"T  c #333C14",
"R  c #3A3D15",
"E  c #33341B",
"W  c #3A351D",
"Q  c #343B1B",
"!  c #3B3C1C",
"~  c #242422",
"^  c #2A2924",
"/  c #2C2B24",
"(  c #342C23",
")  c #372E25",
"_  c #2A3623",
"`  c #343422",
"'  c #3B3422",
"]  c #343B22",
"[  c #3C3B22",
"{  c #39362A",
"}  c #383732",
"|  c #443E16",
" . c #423D1D",
".. c #423C23",
"X. c #453A28",
"o. c #4C3E2E",
"O. c #0D4601",
"+. c #154303",
"@. c #1C4304",
"#. c #164904",
"$. c #1C4B03",
"%. c #1D440A",
"&. c #1B5502",
"*. c #244304",
"=. c #2B4405",
"-. c #244B04",
";. c #2C4B05",
":. c #24430C",
">. c #2C430B",
",. c #254B0B",
"<. c #2C4B0B",
"1. c #334405",
"2. c #334C05",
"3. c #3B4906",
"4. c #33440C",
"5. c #3B440C",
"6. c #344C0C",
"7. c #3B4C0C",
"8. c #245304",
"9. c #2C5304",
"0. c #2B5B05",
"q. c #2C530C",
"w. c #285808",
"e. c #335404",
"r. c #3B5305",
"t. c #345C05",
"y. c #3B5B04",
"u. c #33530B",
"i. c #3B540C",
"p. c #345B0B",
"a. c #3C5B0C",
"s. c #2C4313",
"d. c #284517",
"f. c #2C4B12",
"g. c #344314",
"h. c #3B4414",
"j. c #344B13",
"k. c #3B4B14",
"l. c #34431A",
"z. c #3C431B",
"x. c #354A1A",
"c. c #3C4B1B",
"v. c #2D5213",
"b. c #345313",
"n. c #3C5313",
"m. c #375917",
"M. c #3C5B13",
"N. c #3C531B",
"B. c #2A6403",
"V. c #386607",
"C. c #307506",
"Z. c #3A7507",
"A. c #3D6415",
"S. c #3C4222",
"D. c #394724",
"F. c #30462A",
"G. c #3B5523",
"H. c #3F6020",
"J. c #464A0A",
"K. c #424C0C",
"L. c #584C0D",
"P. c #475707",
"I. c #43540C",
"U. c #435B0C",
"Y. c #4B5C0C",
"T. c #555A0C",
"R. c #434414",
"E. c #434C14",
"W. c #4B4C14",
"Q. c #43441C",
"!. c #4B451C",
"~. c #434B1B",
"^. c #4B4C1C",
"/. c #534B19",
"(. c #435314",
"). c #4B5414",
"_. c #445B13",
"`. c #4C5B14",
"'. c #44531B",
"]. c #4C531B",
"[. c #445B1A",
"{. c #4B5B1B",
"}. c #535B14",
"|. c #595817",
" X c #53541C",
".X c #535B1B",
"XX c #6B590E",
"oX c #655A18",
"OX c #476907",
"+X c #44630C",
"@X c #4B630C",
"#X c #55670A",
"$X c #497607",
"%X c #58760A",
"&X c #446313",
"*X c #4B6313",
"=X c #496718",
"-X c #546414",
";X c #5B6414",
":X c #5C6B13",
">X c #53631B",
",X c #576819",
"<X c #4A7514",
"1X c #587516",
"2X c #6C6B0B",
"3X c #66770A",
"4X c #75770C",
"5X c #656817",
"6X c #746918",
"7X c #677616",
"8X c #777817",
"9X c #444323",
"0X c #4A4424",
"qX c #444A23",
"wX c #4B4B23",
"eX c #48472A",
"rX c #4C442A",
"tX c #524C23",
"yX c #544A2A",
"uX c #4C5323",
"iX c #485724",
"pX c #535324",
"aX c #595727",
"sX c #535B23",
"dX c #544E33",
"fX c #645A26",
"gX c #655931",
"hX c #4A6422",
"jX c #586525",
"kX c #587429",
"lX c #676625",
"zX c #716F2A",
"xX c #677725",
"cX c #767827",
"vX c #877013",
"bX c #867916",
"nX c #A07D09",
"mX c #897A24",
"MX c #4A8505",
"NX c #588509",
"BX c #568911",
"VX c #668605",
"CX c #688618",
"ZX c #798618",
"AX c #749212",
"SX c #7BA216",
"DX c #6A8726",
"FX c #788C27",
"GX c #888915",
"HX c #909216",
"JX c #ADAC16",
"KX c #A4A61C",
"LX c #8B9027",
"PX c #8FA82C",
"IX c #CFB912",
"UX c #A9C91D",
/* pixels */
": : L.. ,.l r k H 3.OX~ 6.% 5.",
"# 5X- q.K @XOXB.l B.s 8 ~ t OX",
"8 T.R.r P.P.OXP.@.3 G 6 : ~ B.",
"7.#X8.&.e AXZ.4 b #.v jX6 A $X",
"4 ;.t.&.z 4XQ l.b.,.b.KX- O [ ",
"r *.t.+XZX#.A 5 ` 9 u.1 s   8 ",
"1 0.8.i.3XHXy.# f a OX~ J P _.",
"&.4 i.1.5 ;.i.f.~ 8XZX7 C y.1.",
"0.2 x y.w.,.+Xh -X;X*.6.4Xb 7 ",
"w.4 >.j z g E.% j P.V @X>.7X# ",
"3Xq.<.#.w q z e 6.1.2 3.7X#Xp.",
"v S 4.=.4.*.@X2 y.;.2 z Y.3 Y.",
"h 4 NX-.0.r '.< T :.0.9 T.f.T.",
"H v ZX=.%Xq i.x 4.7.y.2 y M @ ",
"/.).7Xx VXI.v f.b G V.7 v 4 A ",
"Q.h.R 9 I.(.ZX+.9 r r.bXu >.g ",
"F mXZXm >.4.:XN.k.;.. -.b u.$.",
"|.Q k.z.q h.q.4.h.@Xe w *.z i.",
"Q 6X9X/.l.3 u.<.s.r.OXY.b y.3 ",
"!.H H ZXb 8.v z <.+ %Xm J.w.OX",
"!.>Xb.1X;.OXi.C.s.4 I.c a.i.6.",
"}.LXW.,X*.w v d z.j @ @ 5.T z ",
"g.mX4.u.z x ;.w.j.6.G V.G v v ",
" X..u.`.H 0.q.< 5X).;XR H #X&.",
"0Xl...g.H > 6.U :.7 + V.c 9.e.",
"! m T U G :.7 d.7 R.6 *.6.2.3.",
"'.R T 7 G z.oXP x.T < 9 b v 4 ",
"E _.f.'.H E P E U l.b B.b a < ",
"N.5X{.qXQ ` Q.U fX(.N.$.r f.1.",
"wXQ H  XW Q h.oXwXR m M.v b @X",
};
