/* XPM */
static char *_f45da385dd1475cea221cc3bef75a70Olhp1f6rPjBEU3ff[] = {
/* columns rows colors chars-per-pixel */
"30 30 12 1 ",
"  c None",
". c #1C1117",
"X c #483B3A",
"o c #62232F",
"O c #314152",
"+ c #3D734F",
"@ c #775C55",
"# c #8F4029",
"$ c #C56025",
"% c #55A894",
"& c #72D6CE",
"* c #F0F0DD",
/* pixels */
"                       ....   ",
"                      .$$##.  ",
"                      .$$##...",
"                      .$$#%%&.",
"                    ...$$##.. ",
"                    .&%%$##.  ",
"        ..........   ..$$##...",
"       .O+.+++++++.   .$$#%%&.",
"    .  .O+.+++++++. ...$$##.  ",
"    .  .O++.++++++. .&%%$##.  ",
"  .  ...O+O...OOOO.  ..$$##...",
"  . .OO.O++...+++..   .$$#%%&.",
" . .OO+.O++.....+...  .$$##.. ",
" ..OO++.O++OO+++..*.  .$$##.  ",
"  .O+++.O+++*+++++*.  .$$##.  ",
" ..OO++.OO*.*..*.**.   .$#.   ",
"  .O+++..O+++++++++.  .....   ",
"  .O++++.OOOOOOOOO..  .O++.   ",
"  .OO+++............  .O++.   ",
"  .OO++++++++++++++.  .O++.   ",
"  .O++++OO++++++OO+.  .....   ",
"  .OO++++++++++++++.   .$#.   ",
"  .OOO+++++++++++++.   .$#.   ",
" ..OOOOOOOOOOOOOOOO..   ..    ",
" .o#################.         ",
" ..XXXXXXXXXXXXXXXX..         ",
"  .XXX@@@@@@@X@@@@@.          ",
"  .XX@@@@@@@XXX@@@@.          ",
"  .XX@@@@@@@@X@@@@@.          ",
"  .#####......@@@@@.          ",
};
