/* XPM */
static char *f0ee1e1fe88d46a9bb887e26595b0e88fUJ74PdZhDzgIpdX[] = {
/* columns rows colors chars-per-pixel */
"30 30 4 1 ",
"  c #3A4466",
". c #5A6988",
"X c #8B9BB4",
"o c #C0CBDC",
/* pixels */
"XXXXXXXXXXXX.oXXXXXXXXXXXXXXXX",
"...........   ............... ",
" XoooooooooooooooX Xoooooooooo",
".oXXXXXXXXXXXXXXXX.oXXXXXXXXXX",
".oXXXXXXXXXXXXXXXX.oXXXXXXXXXX",
".oXXXXXXXXXXXXXXXX.oXXXXXXXXXX",
" .           ..... .          ",
"oooX XoooooooooooooooX Xoooooo",
"XXXXXX.oXXXXXXXXXXXXXX.oXXXXXX",
"XXXXXX.oXXXXXXXXXXXXXX.oXXXXXX",
"XXXXXX.oXXXXXXXXXXXXXX.oXXXXXX",
"                              ",
"oooooooooooX XoooooooooooooooX",
"XXXXXXXXXXXX.oXXXXXXXXXXXXXXXX",
"XXXXXXXXXXXX.oXXXXXXXXXXXXXXXX",
"XXXXXXXXXXXX.oXXXXXXXXXXXXXXXX",
"...........   ............... ",
" XoooooooooooooooX Xoooooooooo",
".oXXXXXXXXXXXXXXXX.oXXXXXXXXXX",
".oXXXXXXXXXXXXXXXX.oXXXXXXXXXX",
".oXXXXXXXXXXXXXXXX.oXXXXXXXXXX",
" .           ..... .          ",
"oooX XoooooooooooooooX Xoooooo",
"XXXXXX.oXXXXXXXXXXXXXX.oXXXXXX",
"XXXXXX.oXXXXXXXXXXXXXX.oXXXXXX",
"XXXXXX.oXXXXXXXXXXXXXX.oXXXXXX",
"                              ",
"oooooooooooX XoooooooooooooooX",
"XXXXXXXXXXXX.oXXXXXXXXXXXXXXXX",
"XXXXXXXXXXXX.oXXXXXXXXXXXXXXXX",
};
